Coordinates
version=1
nRows=17
nColumns=36
inDegrees=yes

Units are S.I. units (second, meters, Newtons, ...)
If the header above contains a line with 'inDegrees', this indicates whether rotational values are in degrees (yes) or radians (no).

endheader
time	pelvis_tilt	pelvis_list	pelvis_rotation	pelvis_tx	pelvis_ty	pelvis_tz	hip_flexion_r	hip_adduction_r	hip_rotation_r	knee_angle_r	knee_angle_r_beta	ankle_angle_r	subtalar_angle_r	mtp_angle_r	hip_flexion_l	hip_adduction_l	hip_rotation_l	knee_angle_l	knee_angle_l_beta	ankle_angle_l	subtalar_angle_l	mtp_angle_l	lumbar_extension	lumbar_bending	lumbar_rotation	arm_flex_r	arm_add_r	arm_rot_r	elbow_flex_r	pro_sup_r	arm_flex_l	arm_add_l	arm_rot_l	elbow_flex_l	pro_sup_l
      1.14583330	    -18.36011226	     -2.17907530	      0.64975526	     -0.60360061	      1.17765405	     -0.07675658	     18.34173836	     -2.88740652	     -9.97116986	     37.05455487	      0.64672399	     14.38403180	      1.36711862	     -7.49999987	     17.12423897	     -9.45009636	     -3.85278096	     34.98912139	      0.61067537	     16.13306218	      6.02717895	     -7.49999987	     -9.64635279	     -0.47265821	      3.53904265	     88.02081111	     -8.34214432	     25.87866534	     89.13693668	     82.50962515	     82.88775020	      6.29318146	     28.54904886	     82.79214548	     59.42873684
      1.15000000	    -17.36002534	     -2.39709502	      0.54076560	     -0.59773356	      1.18438933	     -0.08111936	     15.88511329	     -3.02985462	    -10.45064578	     34.62992317	      0.60440618	     11.53295765	      0.58248282	     -7.49999987	     14.66959970	     -8.89474614	     -3.88764861	     32.98520466	      0.57570043	     14.74684406	      4.98802863	     -7.49999987	     -9.81474626	      0.20589796	      3.03712776	     87.73155334	     -8.09329328	     25.60249764	     89.87664865	     82.89524679	     82.25886484	      5.63089481	     27.23924144	     83.57274020	     59.78256488
      1.15416670	    -17.26622083	     -2.63164070	      0.80220992	     -0.59212488	      1.19061559	     -0.07790000	     14.78646789	     -2.99449555	    -11.04337832	     33.20233980	      0.57949015	      9.06657563	      1.48207320	     -7.49999987	     13.59493161	     -8.79102729	     -3.76012905	     31.18654041	      0.54430781	     13.49693665	      4.84745823	     -7.49999987	     -8.97364246	      0.70521997	      2.68978901	     87.02450249	     -8.13414509	     25.99912150	     90.43487088	     83.08283557	     81.33137567	      5.36451438	     27.09482152	     84.44399939	     60.00160275
      1.15833330	    -17.15912395	     -2.63296754	      0.81218808	     -0.58632505	      1.19841858	     -0.08220501	     13.74588257	     -3.11391707	    -11.01404016	     31.58411607	      0.55124682	      6.79427780	      1.91178738	     -7.49999987	     12.44689742	     -8.36459510	     -3.52441237	     29.48742732	      0.51465269	     12.09101546	      4.08043252	     -7.49999987	     -8.83593014	      1.42417814	      2.14786736	     86.96685410	     -7.75323187	     27.17888717	     91.07717771	     84.00764563	     80.29608364	      4.51909078	     26.16503242	     86.85848786	     61.31223801
      1.16250000	    -17.08337139	     -2.48826105	      0.77339863	     -0.57986736	      1.20921947	     -0.07832360	     12.59683081	     -3.03939421	    -11.47531026	     29.12239577	      0.50828169	      4.27980378	      2.34330123	     -7.49999987	     11.22456591	     -8.10408665	     -4.14861420	     27.39024985	      0.47805004	      9.66080111	      3.96696308	     -7.49999987	     -8.50806284	      1.35595697	      2.31309496	     86.40600598	     -8.36049855	     27.95029686	     91.29790217	     84.20498860	     79.64913902	      3.88354655	     26.34890798	     87.71416161	     61.67604708
      1.16666670	    -17.06572253	     -2.33062726	      0.54549897	     -0.57518150	      1.20705110	     -0.08225331	     12.08591450	     -3.15212231	    -11.34595639	     28.03015748	      0.48921854	      1.86940878	      2.39397406	     -7.49999987	     10.27227403	     -7.76537134	     -4.73612944	     25.99405417	      0.45368183	      7.51735587	      4.26760557	     -7.49999987	     -7.98290690	      1.53052734	      2.73218658	     86.65357244	     -8.85738552	     28.71274337	     91.53009287	     84.26803450	     79.22716361	      3.43815263	     26.41596151	     88.44558644	     61.92529038
      1.17083330	    -16.89506060	     -2.43740076	      0.25074249	     -0.56908000	      1.21002407	     -0.07833820	     11.75488067	     -2.75667622	    -10.66781009	     27.65053195	      0.48259282	     -0.23114476	      2.28788748	     -7.49999987	      9.36499389	     -7.81908045	     -5.02875212	     25.02243214	      0.43672383	      5.58308001	      3.88094103	     -7.49999987	     -7.81706652	      2.00431515	      3.30278331	     88.25053162	     -8.95670358	     29.61962025	     92.03732948	     84.41546437	     79.41396812	      2.87260745	     25.74771376	     89.38390124	     62.63481678
      1.17500000	    -16.80410033	     -2.37862380	      0.11148519	     -0.56307762	      1.21637536	     -0.07410976	     11.46726771	     -2.56672759	    -10.70849641	     27.32430022	      0.47689900	     -2.33808947	      2.40627380	     -7.49999987	      8.92638155	     -8.04885281	     -6.07916214	     24.58651030	      0.42911556	      3.06642872	      4.12231884	     -7.49999987	     -7.26449145	      1.82023794	      3.38372797	     88.14119961	     -8.44718382	     29.16310643	     91.98892126	     84.42880963	     79.04655866	      2.52669082	     25.36372443	     89.72500234	     63.01939101
      1.17916670	    -16.91062986	     -2.33945956	      0.17109285	     -0.55655502	      1.22016577	     -0.07094029	     11.18305762	     -2.22082546	    -10.25128966	     26.31608835	      0.45930239	     -4.68989473	      2.12171825	     -7.49999987	      8.75216810	     -8.45011514	     -7.33763107	     23.97734163	      0.41848356	      0.27780889	      4.50063881	     -7.49999987	     -6.50116284	      1.33910323	      2.92667468	     87.34408893	     -7.59709871	     28.89227855	     92.71474358	     84.47362044	     78.69183979	      1.82068420	     25.25899006	     90.03602664	     63.28598446
      1.18333330	    -16.95109526	     -2.20404459	      0.21914556	     -0.54550651	      1.22034048	     -0.07134474	     10.60719448	     -2.19272331	     -9.75565720	     25.71740174	      0.44885334	     -6.63242139	      1.27400964	     -7.49999987	      8.29404284	     -8.44699503	     -7.88300648	     23.78584155	      0.41514125	     -1.65427686	      4.96303098	     -7.49999987	     -5.58784512	      0.78460529	      2.55895958	     86.13892694	     -7.21957712	     28.07999670	     93.34249488	     84.60394229	     77.54425956	      1.00352572	     25.26012846	     91.37851509	     63.80504427
      1.18750000	    -17.21586508	     -2.38308357	      0.44981410	     -0.53907382	      1.23063362	     -0.06876774	      9.85807132	     -1.74526524	     -9.67047011	     23.65046150	      0.41277842	     -9.45322856	      1.44293657	     -7.49999987	      7.78982440	     -8.82528594	     -8.42320297	     22.52787135	      0.39318553	     -4.07676225	      5.62744698	     -7.49999987	     -4.37115619	      0.59188726	      1.93951547	     84.34968737	     -7.11170045	     27.96175398	     93.97675796	     85.57798361	     76.09093944	      0.44774117	     25.21673166	     92.24798375	     64.23366201
      1.19166670	    -17.00175839	     -2.83329807	      0.88173497	     -0.52810013	      1.24287666	     -0.07024964	      7.98211438	     -1.11104562	     -9.52794809	     20.49259834	      0.35766331	    -13.63612566	      1.65473408	     -7.49999987	      6.75967421	     -9.31236692	     -8.95410301	     20.97274301	      0.36604342	     -7.18580180	      6.30369562	     -7.49999987	     -3.70581026	      0.97841133	      1.31538577	     82.68832244	     -7.63382131	     28.80153580	     94.98431624	     84.90837372	     74.38474313	     -0.14986727	     25.43323340	     93.23108341	     64.66272472
      1.19583330	    -16.96375390	     -3.40337344	      0.88624917	     -0.52782703	      1.24531072	     -0.07111471	      7.52874156	     -0.28557115	     -8.51806297	     19.30889760	      0.33700384	    -18.29827813	      0.82784450	     -7.49999987	      6.60295717	     -9.80212506	     -9.13833931	     20.48924109	      0.35760472	     -9.95123476	      6.00820303	     -7.49999987	     -3.44380295	      1.64415625	      1.28703837	     82.83091618	     -8.24199668	     29.43253622	     96.51000834	     84.80140698	     74.06247406	     -0.48753533	     25.56775665	     94.50693543	     65.20890333
      1.20000000	    -16.46304913	     -3.69628477	      0.87277219	     -0.52232535	      1.25092846	     -0.07580890	      6.93248701	      0.01730798	     -8.37532641	     18.13891318	      0.31658376	    -22.77215989	     -0.24121469	     -7.49999987	      6.32864033	     -9.70649082	     -8.34432920	     20.34101421	      0.35501767	    -11.60548020	      4.86552304	     -7.49999987	     -3.66757884	      2.12810654	      1.16367865	     83.70492156	     -8.77626985	     29.77178357	     97.13549834	     85.12551097	     74.35376664	     -0.53113952	     25.42678155	     95.08715440	     65.83215945
      1.20416670	    -16.01331653	     -3.93089490	      0.74089470	     -0.51115095	      1.25709704	     -0.07697907	      6.10827664	      0.18656494	     -8.22876863	     17.17120007	      0.29969398	    -25.31498517	     -1.70003662	     -7.49999987	      5.99468963	     -9.36989734	     -7.03178162	     20.24439393	      0.35333133	    -13.21907819	      3.81768743	     -7.49999987	     -3.70386069	      2.69640022	      1.07930599	     83.99971119	     -9.09321333	     30.45327482	     97.94180286	     87.36091891	     74.19416480	     -0.79189704	     25.25411855	     95.88429704	     70.66313722
      1.20833330	    -15.66666691	     -3.92021241	      0.91503093	     -0.50600913	      1.25634200	     -0.08102359	      5.36179418	      0.02090173	     -8.55661226	     16.67495663	      0.29103290	    -27.67438295	     -3.70799914	     -7.49999987	      5.53876059	     -8.75686440	     -5.56395317	     20.22229888	      0.35294570	    -14.64458354	      2.46028891	     -7.49999987	     -3.47849791	      3.10795746	      0.98244387	     84.42950505	     -9.62393536	     31.22124941	     98.44867056	     87.45261893	     74.08788749	     -1.02556566	     25.60274466	     96.57228736	     70.82394272
      1.21250000	    -15.45333761	     -4.00346505	      0.95440255	     -0.50490042	      1.26144359	     -0.08108867	      5.66715294	     -0.04813154	     -8.62947467	     17.18813642	      0.29998957	    -28.53850870	     -6.08922846	     -7.49999987	      5.97981008	     -8.58196431	     -4.17248647	     20.99759505	      0.36647717	    -16.74875540	      0.98332361	     -7.49999987	     -3.56109866	      3.38265104	      0.75651973	     84.82355734	     -9.91793269	     32.09582171	     98.17563637	     87.59090054	     74.13092790	     -1.49320548	     26.20261449	     96.74254559	     71.07187172
